<svg width="1200" height="1200" viewBox="0 0 654 976" fill="none" xmlns="http://www.w3.org/2000/svg">
<style>
    path{
        fill: #000;
    }
    path#red{
        fill: #990000;
    }
    @media ( prefers-color-scheme: dark ) {
			path {
				fill: #FFFFFF;
			}
		}
</style>
<path d="M329.4 234C385.8 234 434.4 246.6 475.2 271.8C516 296.4 547.5 331.5 569.7 377.1C591.9 422.7 603 477 603 540C603 603 591.9 657.3 569.7 702.9C547.5 748.5 516 783.9 475.2 809.1C434.4 833.7 385.8 846 329.4 846C273.6 846 225 833.7 183.6 809.1C142.8 783.9 111.3 748.5 89.1 702.9C66.9 657.3 55.8 603 55.8 540C55.8 477 66.9 422.7 89.1 377.1C111.3 331.5 142.8 296.4 183.6 271.8C225 246.6 273.6 234 329.4 234ZM329.4 275.4C283.2 275.4 243 286.2 208.8 307.8C175.2 328.8 149.1 359.1 130.5 398.7C111.9 438.3 102.6 485.4 102.6 540C102.6 594.6 111.9 641.7 130.5 681.3C149.1 720.9 175.2 751.5 208.8 773.1C243 794.1 283.2 804.6 329.4 804.6C376.2 804.6 416.4 794.1 450 773.1C483.6 751.5 509.7 720.9 528.3 681.3C546.9 641.7 556.2 594.6 556.2 540C556.2 485.4 546.9 438.3 528.3 398.7C509.7 359.1 483.6 328.8 450 307.8C416.4 286.2 376.2 275.4 329.4 275.4Z" fill="white"/>
<path d="M443.5 374C466.5 374 486.333 378 503 386C519.667 393.667 532.5 404.667 541.5 419C550.833 433.333 555.5 450.5 555.5 470.5C555.5 490.833 550.833 508.167 541.5 522.5C532.5 536.833 519.667 548 503 556C486.333 563.667 466.5 567.5 443.5 567.5H359V704H334V374H443.5ZM440.5 544C469.5 544 491.5 537.667 506.5 525C521.5 512 529 493.833 529 470.5C529 447.167 521.5 429.167 506.5 416.5C491.5 403.5 469.5 397 440.5 397H359V544H440.5Z" fill="white"/>
<line x1="354.978" y1="652.985" x2="116.985" y2="652.5" stroke="white" stroke-width="15"/>
<path id="red" d="M139.309 624.152C134.69 624.19 130.966 623.71 128.137 622.713C125.37 621.775 123.318 620.292 121.981 618.263C120.705 616.233 120.053 613.628 120.028 610.448L119.91 595.959C119.883 592.599 119.084 590.205 117.512 588.778C116 587.35 113.415 586.651 109.755 586.681L109.685 578.131C113.345 578.101 115.919 577.361 117.408 575.908C118.956 574.456 119.716 572.05 119.689 568.69L119.571 554.11C119.545 550.93 120.154 548.345 121.398 546.355C122.701 544.305 124.729 542.788 127.481 541.806C130.293 540.763 134.009 540.223 138.629 540.185L138.696 548.555C135.517 548.581 133.241 549.109 131.869 550.14C130.497 551.172 129.821 552.797 129.839 555.017L129.967 570.856C129.992 573.916 129.202 576.413 127.598 578.346C126.053 580.219 123.753 581.527 120.699 582.272C123.765 583.027 126.086 584.358 127.662 586.266C129.297 588.112 130.127 590.566 130.152 593.626L130.28 609.465C130.298 611.685 131.001 613.299 132.389 614.308C133.778 615.317 136.062 615.809 139.242 615.783L139.309 624.152ZM163.048 607.669C159.328 607.7 155.99 606.797 153.035 604.961C150.14 603.124 147.839 600.473 146.131 597.006C144.482 593.54 143.639 589.376 143.599 584.516C143.559 579.537 144.395 575.3 146.106 571.806C147.818 568.252 150.136 565.563 153.061 563.739C156.046 561.855 159.398 560.897 163.118 560.867C167.078 560.835 170.357 561.949 172.956 564.208C175.554 566.467 177.258 569.393 178.067 572.987L176.909 574.436L176.645 541.947L188.975 541.847L189.499 606.555L178.43 606.645L177.509 592.972L179.045 593.679C178.648 596.503 177.708 598.97 176.225 601.082C174.741 603.134 172.864 604.74 170.594 605.898C168.323 607.057 165.808 607.647 163.048 607.669ZM166.571 598.191C168.731 598.173 170.586 597.618 172.138 596.525C173.688 595.373 174.875 593.713 175.697 591.546C176.58 589.379 177.009 586.796 176.985 583.796C176.961 580.916 176.521 578.489 175.665 576.516C174.809 574.483 173.596 572.933 172.028 571.865C170.459 570.798 168.625 570.273 166.525 570.29C163.165 570.317 160.535 571.539 158.634 573.954C156.793 576.309 155.891 579.767 155.928 584.326C155.965 588.886 156.923 592.359 158.803 594.743C160.682 597.068 163.271 598.217 166.571 598.191ZM223.341 607.181C218.602 607.219 214.454 606.323 210.899 604.491C207.404 602.66 204.683 600.012 202.735 596.547C200.786 593.083 199.792 588.891 199.752 583.971C199.713 579.051 200.639 574.844 202.53 571.348C204.422 567.853 207.07 565.161 210.475 563.273C213.94 561.385 217.892 560.423 222.332 560.387C226.892 560.35 230.769 561.249 233.964 563.083C237.159 564.857 239.609 567.327 241.315 570.494C243.02 573.6 243.889 577.163 243.921 581.183C243.931 582.383 243.91 583.523 243.859 584.603C243.808 585.684 243.726 586.645 243.612 587.486L207.704 587.777L207.634 579.227L238.143 578.98L232.221 581.188C232.19 577.408 231.297 574.505 229.54 572.479C227.844 570.453 225.436 569.452 222.316 569.478C220.036 569.496 218.06 570.052 216.389 571.146C214.778 572.239 213.561 573.869 212.739 576.035C211.916 578.142 211.517 580.816 211.544 584.055C211.569 587.235 212.041 589.872 212.958 591.964C213.934 593.996 215.267 595.516 216.955 596.522C218.703 597.528 220.777 598.021 223.177 598.002C225.817 597.98 227.943 597.453 229.554 596.42C231.166 595.387 232.415 593.967 233.3 592.159L243.14 595.86C242.199 598.207 240.746 600.229 238.779 601.925C236.873 603.621 234.574 604.929 231.881 605.851C229.248 606.713 226.401 607.156 223.341 607.181ZM282.32 560.801L295.1 560.697L278.365 605.834L264.146 605.95L246.681 561.09L259.821 560.983L271.269 596.442L282.32 560.801ZM297.104 538.9C301.723 538.863 305.417 539.343 308.186 540.34C311.013 541.277 313.065 542.761 314.342 544.791C315.618 546.76 316.269 549.365 316.295 552.605L316.413 567.095C316.44 570.454 317.209 572.848 318.721 574.276C320.293 575.703 322.908 576.402 326.568 576.372L326.638 584.922C322.978 584.952 320.374 585.693 318.825 587.146C317.337 588.598 316.607 591.004 316.634 594.364L316.752 608.943C316.778 612.123 316.169 614.708 314.925 616.698C313.682 618.748 311.654 620.265 308.842 621.248C306.09 622.29 302.404 622.83 297.784 622.867L297.717 614.498C300.896 614.472 303.172 613.943 304.544 612.912C305.916 611.881 306.592 610.256 306.574 608.036L306.446 592.196C306.421 589.136 307.181 586.67 308.726 584.797C310.33 582.864 312.63 581.526 315.624 580.781C312.617 580.026 310.297 578.725 308.662 576.878C307.086 574.97 306.286 572.487 306.261 569.427L306.133 553.587C306.115 551.368 305.412 549.753 304.024 548.744C302.635 547.736 300.351 547.244 297.171 547.27L297.104 538.9Z" fill="#990000"/>
</svg>
