<svg width="562" height="626" viewBox="0 0 562 626" fill="none" xmlns="http://www.w3.org/2000/svg">
<path d="M346.915 451.723L146.915 580.723M231 527C332 553.5 342 567.5 311.5 599M281.4 6.99998C337.8 6.99998 386.4 19.6 427.2 44.8C468 69.4 499.5 104.5 521.7 150.1C543.9 195.7 555 250 555 313C555 376 543.9 430.3 521.7 475.9C499.5 521.5 468 556.9 427.2 582.1C386.4 606.7 337.8 619 281.4 619C225.6 619 177 606.7 135.6 582.1C94.8 556.9 63.3 521.5 41.1 475.9C18.9 430.3 7.8 376 7.8 313C7.8 250 18.9 195.7 41.1 150.1C63.3 104.5 94.8 69.4 135.6 44.8C177 19.6 225.6 6.99998 281.4 6.99998ZM281.4 48.4C235.2 48.4 195 59.2 160.8 80.8C127.2 101.8 101.1 132.1 82.5 171.7C63.9 211.3 54.6 258.4 54.6 313C54.6 367.6 63.9 414.7 82.5 454.3C101.1 493.9 127.2 524.5 160.8 546.1C195 567.1 235.2 577.6 281.4 577.6C328.2 577.6 368.4 567.1 402 546.1C435.6 524.5 461.7 493.9 480.3 454.3C498.9 414.7 508.2 367.6 508.2 313C508.2 258.4 498.9 211.3 480.3 171.7C461.7 132.1 435.6 101.8 402 80.8C368.4 59.2 328.2 48.4 281.4 48.4ZM422.306 179.48C441.718 179.48 458.457 182.856 472.524 189.608C486.591 196.079 497.422 205.363 505.018 217.46C512.895 229.557 516.834 244.046 516.834 260.926C516.834 278.087 512.895 292.717 505.018 304.814C497.422 316.911 486.591 326.336 472.524 333.088C458.457 339.559 441.718 342.794 422.306 342.794H350.988V458H329.888V179.48H422.306ZM419.774 322.96C444.25 322.96 462.818 317.615 475.478 306.924C488.138 295.952 494.468 280.619 494.468 260.926C494.468 241.233 488.138 226.041 475.478 215.35C462.818 204.378 444.25 198.892 419.774 198.892H350.988V322.96H419.774ZM146.154 435.464C142.048 438.545 138.402 440.573 135.215 441.547C132.122 442.534 129.309 442.561 126.775 441.629C124.295 440.656 121.995 438.756 119.874 435.93L110.212 423.052C107.971 420.066 105.677 418.453 103.331 418.213C101.037 417.934 98.264 419.014 95.0112 421.455L89.3096 413.856C92.5624 411.416 94.3753 409.055 94.7481 406.775C95.1743 404.455 94.2671 401.802 92.0265 398.816L82.3038 385.858C80.1832 383.031 79.0227 380.318 78.8221 377.718C78.6349 375.025 79.4477 372.332 81.2605 369.638C83.0865 366.851 86.0526 363.917 90.1586 360.836L95.7402 368.275C92.9139 370.396 91.2277 372.369 90.6814 374.196C90.1351 376.023 90.6022 377.923 92.0826 379.896L102.645 393.974C104.686 396.693 105.627 399.446 105.467 402.233C105.321 404.926 104.128 407.613 101.889 410.294C105.129 408.946 108.082 408.606 110.749 409.272C113.429 409.845 115.789 411.491 117.83 414.21L128.393 428.288C129.873 430.261 131.567 431.241 133.473 431.227C135.38 431.213 137.746 430.146 140.573 428.026L146.154 435.464ZM156.507 405.068C153.2 407.549 149.621 408.943 145.767 409.251C141.967 409.518 138.161 408.665 134.347 406.693C130.586 404.68 127.086 401.514 123.845 397.195C120.524 392.769 118.476 388.43 117.702 384.176C116.888 379.87 117.187 375.936 118.6 372.376C120.026 368.723 122.392 365.655 125.698 363.175C129.217 360.534 132.884 359.367 136.697 359.672C140.511 359.978 143.964 361.471 147.058 364.15L146.978 366.21L125.313 337.335L136.271 329.113L179.423 386.624L169.584 394.006L159.742 382.388L161.582 382.007C163.089 384.794 163.876 387.62 163.944 390.487C163.971 393.3 163.351 395.974 162.085 398.507C160.819 401.041 158.959 403.228 156.507 405.068ZM153.404 394.269C155.324 392.829 156.617 391.108 157.283 389.108C157.909 387.055 157.876 384.788 157.182 382.308C156.541 379.788 155.221 377.195 153.22 374.529C151.3 371.969 149.306 370.09 147.239 368.89C145.132 367.637 143.025 367.051 140.919 367.132C138.812 367.212 136.826 367.952 134.959 369.353C131.973 371.593 130.427 374.42 130.321 377.834C130.228 381.154 131.702 384.84 134.743 388.893C137.784 392.946 140.931 395.418 144.185 396.311C147.398 397.15 150.471 396.47 153.404 394.269ZM210.094 364.86C205.882 368.021 201.582 369.955 197.196 370.663C192.862 371.33 188.682 370.758 184.655 368.945C180.628 367.133 176.974 364.04 173.693 359.668C170.412 355.295 168.465 350.922 167.851 346.549C167.236 342.176 167.829 338.022 169.628 334.088C171.481 330.115 174.38 326.647 178.326 323.687C182.379 320.646 186.438 318.892 190.505 318.424C194.531 317.903 198.352 318.496 201.965 320.202C205.539 321.854 208.666 324.467 211.347 328.04C212.147 329.106 212.881 330.139 213.547 331.139C214.214 332.139 214.775 333.052 215.228 333.879L183.313 357.826L177.611 350.227L204.727 329.881L200.888 335.762C198.368 332.402 195.654 330.396 192.747 329.744C189.894 329.051 187.081 329.745 184.308 331.825C182.281 333.346 180.882 335.146 180.109 337.226C179.389 339.266 179.376 341.526 180.07 344.006C180.724 346.433 182.131 349.086 184.292 351.965C186.412 354.792 188.573 356.838 190.773 358.104C192.987 359.277 195.18 359.756 197.353 359.543C199.58 359.289 201.76 358.362 203.893 356.761C206.239 355.001 207.792 353.127 208.552 351.14C209.311 349.154 209.491 347.06 209.09 344.86L220.33 341.678C221.037 344.398 221.071 347.164 220.431 349.978C219.845 352.751 218.653 355.438 216.853 358.039C215.067 360.546 212.814 362.819 210.094 364.86ZM232.236 284.487L243.594 275.964L258.405 327.361L245.767 336.844L200.561 308.253L212.239 299.491L245.864 323.644L232.236 284.487ZM231.008 255.154C235.114 252.073 238.734 250.065 241.867 249.131C245.013 248.104 247.827 248.077 250.307 249.049C252.747 249.969 255.047 251.869 257.208 254.748L266.871 267.626C269.111 270.612 271.378 272.245 273.672 272.525C276.018 272.764 278.818 271.664 282.071 269.223L287.772 276.822C284.52 279.262 282.68 281.643 282.254 283.963C281.881 286.243 282.815 288.876 285.056 291.862L294.778 304.82C296.899 307.647 298.059 310.36 298.26 312.96C298.501 315.613 297.688 318.306 295.822 321.04C294.049 323.787 291.109 326.701 287.003 329.782L281.422 322.343C284.248 320.222 285.934 318.249 286.481 316.422C287.027 314.595 286.56 312.695 285.08 310.722L274.517 296.644C272.476 293.925 271.529 291.218 271.675 288.525C271.834 285.738 273.007 283.025 275.193 280.384C272.007 281.692 269.074 282.059 266.393 281.486C263.727 280.82 261.373 279.127 259.332 276.408L248.769 262.33C247.289 260.357 245.596 259.377 243.689 259.391C241.782 259.405 239.416 260.472 236.59 262.592L231.008 255.154Z" stroke="white" stroke-width="14"/>
</svg>
