<svg width="900" height="900" viewBox="0 0 900 900" fill="none" xmlns="http://www.w3.org/2000/svg">
<circle cx="450" cy="450" r="450" fill="white"/>
<path d="M823.42 454.54C830.093 454.54 835.423 455.277 839.41 456.75C843.483 458.137 846.43 460.303 848.25 463.25C850.07 466.11 850.98 469.88 850.98 474.56V495.49C850.98 500.343 852.063 503.81 854.23 505.89C856.483 507.97 860.253 509.01 865.54 509.01V521.36C860.253 521.36 856.483 522.4 854.23 524.48C852.063 526.56 850.98 530.027 850.98 534.88V555.94C850.98 560.533 850.07 564.26 848.25 567.12C846.43 570.067 843.483 572.233 839.41 573.62C835.423 575.093 830.093 575.83 823.42 575.83V563.74C828.013 563.74 831.307 563.003 833.3 561.53C835.293 560.057 836.29 557.717 836.29 554.51V531.63C836.29 527.21 837.417 523.657 839.67 520.97C842.01 518.197 845.347 516.29 849.68 515.25C845.347 514.123 842.01 512.217 839.67 509.53C837.417 506.757 836.29 503.16 836.29 498.74V475.86C836.29 472.653 835.293 470.313 833.3 468.84C831.307 467.367 828.013 466.63 823.42 466.63V454.54Z" fill="#800000"/>
<path d="M57 555.25C51.8333 555.25 47.0833 553.958 42.75 551.375C38.4167 548.792 34.9583 545.083 32.375 540.25C29.7917 535.333 28.5 529.5 28.5 522.75C28.5 515.833 29.875 509.958 32.625 505.125C35.375 500.292 39 496.625 43.5 494.125C48 491.542 52.8333 490.25 58 490.25C63.1667 490.25 67.625 491.583 71.375 494.25C75.2083 496.917 77.75 500.458 79 504.875L77.75 505.75V462.75H87.75V554H79L78.125 538.875L79.5 538.125C78.9167 541.792 77.5 544.917 75.25 547.5C73.0833 550 70.375 551.917 67.125 553.25C63.9583 554.583 60.5833 555.25 57 555.25ZM58 546.5C62 546.5 65.4583 545.5 68.375 543.5C71.375 541.5 73.6667 538.667 75.25 535C76.9167 531.25 77.75 526.875 77.75 521.875C77.75 517.125 76.9167 513.042 75.25 509.625C73.6667 506.208 71.4167 503.583 68.5 501.75C65.6667 499.917 62.3333 499 58.5 499C52.1667 499 47.25 501.167 43.75 505.5C40.25 509.833 38.5 515.583 38.5 522.75C38.5 529.917 40.2083 535.667 43.625 540C47.0417 544.333 51.8333 546.5 58 546.5ZM137.119 555.25C131.202 555.25 125.911 553.958 121.244 551.375C116.661 548.792 113.077 545.083 110.494 540.25C107.911 535.333 106.619 529.5 106.619 522.75C106.619 516 107.911 510.208 110.494 505.375C113.077 500.458 116.619 496.708 121.119 494.125C125.619 491.542 130.744 490.25 136.494 490.25C142.327 490.25 147.286 491.5 151.369 494C155.536 496.5 158.702 499.917 160.869 504.25C163.036 508.5 164.119 513.292 164.119 518.625C164.119 520.042 164.077 521.333 163.994 522.5C163.911 523.667 163.786 524.708 163.619 525.625H113.119V516.75H159.244L154.119 517.75C154.119 511.75 152.452 507.125 149.119 503.875C145.869 500.625 141.577 499 136.244 499C132.161 499 128.619 499.958 125.619 501.875C122.702 503.708 120.411 506.417 118.744 510C117.161 513.5 116.369 517.75 116.369 522.75C116.369 527.667 117.202 531.917 118.869 535.5C120.536 539.083 122.869 541.833 125.869 543.75C128.952 545.583 132.619 546.5 136.869 546.5C141.452 546.5 145.161 545.625 147.994 543.875C150.911 542.125 153.244 539.75 154.994 536.75L162.869 541.375C161.286 544.208 159.244 546.667 156.744 548.75C154.327 550.833 151.452 552.458 148.119 553.625C144.869 554.708 141.202 555.25 137.119 555.25ZM222.804 491.5H233.304L207.304 554H197.304L171.304 491.5H182.679L202.429 543.875L222.804 491.5ZM272.495 555.25C266.578 555.25 261.287 553.958 256.62 551.375C252.037 548.792 248.453 545.083 245.87 540.25C243.287 535.333 241.995 529.5 241.995 522.75C241.995 516 243.287 510.208 245.87 505.375C248.453 500.458 251.995 496.708 256.495 494.125C260.995 491.542 266.12 490.25 271.87 490.25C277.703 490.25 282.662 491.5 286.745 494C290.912 496.5 294.078 499.917 296.245 504.25C298.412 508.5 299.495 513.292 299.495 518.625C299.495 520.042 299.453 521.333 299.37 522.5C299.287 523.667 299.162 524.708 298.995 525.625H248.495V516.75H294.62L289.495 517.75C289.495 511.75 287.828 507.125 284.495 503.875C281.245 500.625 276.953 499 271.62 499C267.537 499 263.995 499.958 260.995 501.875C258.078 503.708 255.787 506.417 254.12 510C252.537 513.5 251.745 517.75 251.745 522.75C251.745 527.667 252.578 531.917 254.245 535.5C255.912 539.083 258.245 541.833 261.245 543.75C264.328 545.583 267.995 546.5 272.245 546.5C276.828 546.5 280.537 545.625 283.37 543.875C286.287 542.125 288.62 539.75 290.37 536.75L298.245 541.375C296.662 544.208 294.62 546.667 292.12 548.75C289.703 550.833 286.828 552.458 283.495 553.625C280.245 554.708 276.578 555.25 272.495 555.25ZM328.014 462.75V538.125C328.014 541.292 328.597 543.5 329.764 544.75C330.93 545.917 332.805 546.5 335.389 546.5C337.055 546.5 338.43 546.375 339.514 546.125C340.597 545.875 342.055 545.417 343.889 544.75L342.264 553.5C340.93 554.083 339.472 554.5 337.889 554.75C336.305 555.083 334.68 555.25 333.014 555.25C327.93 555.25 324.139 553.875 321.639 551.125C319.222 548.375 318.014 544.167 318.014 538.5V462.75H328.014ZM382.597 490.25C388.513 490.25 393.722 491.542 398.222 494.125C402.805 496.708 406.388 500.458 408.972 505.375C411.555 510.208 412.847 516 412.847 522.75C412.847 529.5 411.555 535.333 408.972 540.25C406.388 545.083 402.805 548.792 398.222 551.375C393.722 553.958 388.513 555.25 382.597 555.25C376.763 555.25 371.555 553.958 366.972 551.375C362.388 548.792 358.805 545.083 356.222 540.25C353.638 535.333 352.347 529.5 352.347 522.75C352.347 516 353.638 510.208 356.222 505.375C358.805 500.458 362.388 496.708 366.972 494.125C371.555 491.542 376.763 490.25 382.597 490.25ZM382.597 498.875C378.347 498.875 374.722 499.833 371.722 501.75C368.722 503.667 366.388 506.417 364.722 510C363.138 513.5 362.347 517.75 362.347 522.75C362.347 527.667 363.138 531.917 364.722 535.5C366.388 539.083 368.722 541.833 371.722 543.75C374.722 545.667 378.347 546.625 382.597 546.625C386.847 546.625 390.472 545.667 393.472 543.75C396.472 541.833 398.763 539.083 400.347 535.5C402.013 531.917 402.847 527.667 402.847 522.75C402.847 517.75 402.013 513.5 400.347 510C398.763 506.417 396.472 503.667 393.472 501.75C390.472 499.833 386.847 498.875 382.597 498.875ZM431.673 580.25V491.5H440.423L441.298 506.75L439.923 505C441.006 502.083 442.631 499.542 444.798 497.375C446.965 495.125 449.59 493.375 452.673 492.125C455.756 490.875 459.09 490.25 462.673 490.25C467.756 490.25 472.423 491.542 476.673 494.125C481.006 496.708 484.465 500.417 487.048 505.25C489.631 510.083 490.923 515.917 490.923 522.75C490.923 529.5 489.59 535.333 486.923 540.25C484.34 545.083 480.881 548.792 476.548 551.375C472.215 553.958 467.465 555.25 462.298 555.25C457.131 555.25 452.59 554 448.673 551.5C444.84 548.917 442.09 545.667 440.423 541.75L441.673 539.875V580.25H431.673ZM461.298 546.5C467.465 546.5 472.256 544.333 475.673 540C479.173 535.667 480.923 529.917 480.923 522.75C480.923 515.583 479.215 509.833 475.798 505.5C472.465 501.167 467.756 499 461.673 499C457.673 499 454.173 500 451.173 502C448.173 503.917 445.84 506.667 444.173 510.25C442.506 513.75 441.673 517.917 441.673 522.75C441.673 527.5 442.465 531.667 444.048 535.25C445.715 538.833 448.006 541.625 450.923 543.625C453.923 545.542 457.381 546.5 461.298 546.5ZM510.042 554V491.5H518.792L519.417 501.25C521.667 497.417 524.584 494.625 528.167 492.875C531.834 491.125 535.584 490.25 539.417 490.25C543.834 490.25 548 491.25 551.917 493.25C555.834 495.25 558.834 498.333 560.917 502.5C562.25 499.667 564.125 497.375 566.542 495.625C568.959 493.792 571.584 492.458 574.417 491.625C577.334 490.708 580.084 490.25 582.667 490.25C586.667 490.25 590.459 491.083 594.042 492.75C597.709 494.417 600.709 497 603.042 500.5C605.375 504 606.542 508.5 606.542 514V554H596.542V515C596.542 509.333 595.125 505.25 592.292 502.75C589.459 500.25 585.959 499 581.792 499C578.542 499 575.5 499.792 572.667 501.375C569.834 502.958 567.542 505.292 565.792 508.375C564.125 511.458 563.292 515.25 563.292 519.75V554H553.292V515C553.292 509.333 551.875 505.25 549.042 502.75C546.209 500.25 542.709 499 538.542 499C535.792 499 532.959 499.75 530.042 501.25C527.209 502.667 524.834 504.958 522.917 508.125C521 511.292 520.042 515.458 520.042 520.625V554H510.042ZM655.308 555.25C649.391 555.25 644.099 553.958 639.433 551.375C634.849 548.792 631.266 545.083 628.683 540.25C626.099 535.333 624.808 529.5 624.808 522.75C624.808 516 626.099 510.208 628.683 505.375C631.266 500.458 634.808 496.708 639.308 494.125C643.808 491.542 648.933 490.25 654.683 490.25C660.516 490.25 665.474 491.5 669.558 494C673.724 496.5 676.891 499.917 679.058 504.25C681.224 508.5 682.308 513.292 682.308 518.625C682.308 520.042 682.266 521.333 682.183 522.5C682.099 523.667 681.974 524.708 681.808 525.625H631.308V516.75H677.433L672.308 517.75C672.308 511.75 670.641 507.125 667.308 503.875C664.058 500.625 659.766 499 654.433 499C650.349 499 646.808 499.958 643.808 501.875C640.891 503.708 638.599 506.417 636.933 510C635.349 513.5 634.558 517.75 634.558 522.75C634.558 527.667 635.391 531.917 637.058 535.5C638.724 539.083 641.058 541.833 644.058 543.75C647.141 545.583 650.808 546.5 655.058 546.5C659.641 546.5 663.349 545.625 666.183 543.875C669.099 542.125 671.433 539.75 673.183 536.75L681.058 541.375C679.474 544.208 677.433 546.667 674.933 548.75C672.516 550.833 669.641 552.458 666.308 553.625C663.058 554.708 659.391 555.25 655.308 555.25ZM701.326 554V491.5H710.076L710.951 505.5L709.326 504.125C710.66 500.792 712.451 498.125 714.701 496.125C716.951 494.042 719.535 492.542 722.451 491.625C725.451 490.708 728.535 490.25 731.701 490.25C736.201 490.25 740.285 491.125 743.951 492.875C747.618 494.542 750.535 497.125 752.701 500.625C754.951 504.125 756.076 508.583 756.076 514V554H746.076V517.5C746.076 510.583 744.576 505.792 741.576 503.125C738.66 500.375 735.035 499 730.701 499C727.701 499 724.701 499.708 721.701 501.125C718.701 502.542 716.201 504.833 714.201 508C712.285 511.167 711.326 515.417 711.326 520.75V554H701.326ZM792.614 473.75V536.75C792.614 539.833 793.489 542.125 795.239 543.625C796.989 545.125 799.239 545.875 801.989 545.875C804.406 545.875 806.489 545.458 808.239 544.625C809.989 543.792 811.573 542.667 812.989 541.25L816.489 549.625C814.573 551.375 812.281 552.75 809.614 553.75C807.031 554.75 804.031 555.25 800.614 555.25C797.448 555.25 794.489 554.708 791.739 553.625C788.989 552.458 786.781 550.667 785.114 548.25C783.531 545.75 782.698 542.5 782.614 538.5V476.5L792.614 473.75ZM815.364 491.5V500.125H770.114V491.5H815.364Z" fill="black"/>
<path d="M311 311.7C317.153 311.7 322.57 313.043 327.25 315.73C332.017 318.417 335.743 322.317 338.43 327.43C341.117 332.457 342.46 338.48 342.46 345.5C342.46 352.52 341.117 358.587 338.43 363.7C335.743 368.727 332.017 372.583 327.25 375.27C322.57 377.957 317.153 379.3 311 379.3C304.933 379.3 299.517 377.957 294.75 375.27C289.983 372.583 286.257 368.727 283.57 363.7C280.883 358.587 279.54 352.52 279.54 345.5C279.54 338.48 280.883 332.457 283.57 327.43C286.257 322.317 289.983 318.417 294.75 315.73C299.517 313.043 304.933 311.7 311 311.7ZM311 320.67C306.58 320.67 302.81 321.667 299.69 323.66C296.57 325.653 294.143 328.513 292.41 332.24C290.763 335.88 289.94 340.3 289.94 345.5C289.94 350.613 290.763 355.033 292.41 358.76C294.143 362.487 296.57 365.347 299.69 367.34C302.81 369.333 306.58 370.33 311 370.33C315.42 370.33 319.19 369.333 322.31 367.34C325.43 365.347 327.813 362.487 329.46 358.76C331.193 355.033 332.06 350.613 332.06 345.5C332.06 340.3 331.193 335.88 329.46 332.24C327.813 328.513 325.43 325.653 322.31 323.66C319.19 321.667 315.42 320.67 311 320.67ZM362.039 405.3V313H371.139L372.049 328.86L370.619 327.04C371.746 324.007 373.436 321.363 375.689 319.11C377.943 316.77 380.673 314.95 383.879 313.65C387.086 312.35 390.553 311.7 394.279 311.7C399.566 311.7 404.419 313.043 408.839 315.73C413.346 318.417 416.943 322.273 419.629 327.3C422.316 332.327 423.659 338.393 423.659 345.5C423.659 352.52 422.273 358.587 419.499 363.7C416.813 368.727 413.216 372.583 408.709 375.27C404.203 377.957 399.263 379.3 393.889 379.3C388.516 379.3 383.793 378 379.719 375.4C375.733 372.713 372.873 369.333 371.139 365.26L372.439 363.31V405.3H362.039ZM392.849 370.2C399.263 370.2 404.246 367.947 407.799 363.44C411.439 358.933 413.259 352.953 413.259 345.5C413.259 338.047 411.483 332.067 407.929 327.56C404.463 323.053 399.566 320.8 393.239 320.8C389.079 320.8 385.439 321.84 382.319 323.92C379.199 325.913 376.773 328.773 375.039 332.5C373.306 336.14 372.439 340.473 372.439 345.5C372.439 350.44 373.263 354.773 374.909 358.5C376.643 362.227 379.026 365.13 382.059 367.21C385.179 369.203 388.776 370.2 392.849 370.2ZM450.693 311.7C453.206 311.7 455.243 312.48 456.803 314.04C458.363 315.6 459.143 317.637 459.143 320.15C459.143 322.663 458.363 324.7 456.803 326.26C455.243 327.82 453.206 328.6 450.693 328.6C448.18 328.6 446.143 327.82 444.583 326.26C443.023 324.7 442.243 322.663 442.243 320.15C442.243 317.637 443.023 315.6 444.583 314.04C446.143 312.48 448.18 311.7 450.693 311.7ZM450.693 362.4C453.206 362.4 455.243 363.18 456.803 364.74C458.363 366.3 459.143 368.337 459.143 370.85C459.143 373.363 458.363 375.4 456.803 376.96C455.243 378.52 453.206 379.3 450.693 379.3C448.18 379.3 446.143 378.52 444.583 376.96C443.023 375.4 442.243 373.363 442.243 370.85C442.243 368.337 443.023 366.3 444.583 364.74C446.143 363.18 448.18 362.4 450.693 362.4Z" fill="black"/>
<g filter="url(#filter0_i_1_3)">
<path d="M279.256 404.065C272.583 404.113 267.203 403.415 263.117 401.971C259.117 400.614 256.151 398.468 254.218 395.536C252.371 392.602 251.427 388.839 251.385 384.246L251.194 363.317C251.15 358.464 249.992 355.005 247.72 352.941C245.534 350.877 241.798 349.864 236.512 349.902L236.399 337.553C241.686 337.515 245.403 336.448 247.55 334.352C249.785 332.256 250.88 328.781 250.836 323.928L250.644 302.869C250.602 298.276 251.478 294.543 253.272 291.67C255.152 288.71 258.079 286.522 262.053 285.106C266.113 283.604 271.479 282.828 278.152 282.78L278.262 294.869C273.669 294.903 270.382 295.663 268.403 297.151C266.423 298.638 265.447 300.986 265.477 304.192L265.685 327.071C265.725 331.491 264.588 335.096 262.273 337.886C260.044 340.589 256.725 342.476 252.314 343.548C256.744 344.643 260.099 346.569 262.377 349.326C264.742 351.995 265.944 355.54 265.984 359.96L266.193 382.839C266.222 386.045 267.24 388.378 269.246 389.837C271.253 391.296 274.553 392.009 279.146 391.975L279.256 404.065Z" fill="#820000"/>
</g>
<defs>
<filter id="filter0_i_1_3" x="235.903" y="282.78" width="43.3531" height="125.59" filterUnits="userSpaceOnUse" color-interpolation-filters="sRGB">
<feFlood flood-opacity="0" result="BackgroundImageFix"/>
<feBlend mode="normal" in="SourceGraphic" in2="BackgroundImageFix" result="shape"/>
<feColorMatrix in="SourceAlpha" type="matrix" values="0 0 0 0 0 0 0 0 0 0 0 0 0 0 0 0 0 0 127 0" result="hardAlpha"/>
<feOffset dy="4"/>
<feGaussianBlur stdDeviation="2"/>
<feComposite in2="hardAlpha" operator="arithmetic" k2="-1" k3="1"/>
<feColorMatrix type="matrix" values="0 0 0 0 0 0 0 0 0 0 0 0 0 0 0 0 0 0 0.25 0"/>
<feBlend mode="normal" in2="shape" result="effect1_innerShadow_1_3"/>
</filter>
</defs>
</svg>
